#!OML:ASF H:\LiuWeirdWalks\Patient Classification 1\Patient 1\Session 1\male.ASF
:FULLY-SPECIFIED
:DEGREES
651
root 2.08094 17.8276 36.7375 2.12604 7.18298 7.63612
lowerback 0.798924 1.58443 -5.49071
upperback 0.208273 2.06409 -1.70917
thorax -0.364385 1.0368 1.29278
lowerneck -22.7751 1.77048 7.8472
upperneck 21.5681 1.97809 -8.49814
head 10.8908 0.487222 -4.10179
rclavicle 6.87671e-015 -3.97569e-016
rhumerus -14.1077 -12.8115 -65.5614
rradius 44.7448
rwrist -18.0083
rhand -20.9892 -0.0278864
rfingers 7.12502
rthumb 5.38476 -29.9395
lclavicle 6.87671e-015 -3.97569e-016
lhumerus -38.8547 18.2655 70.7771
lradius 12.957
lwrist -18.7433
lhand -8.60342 -4.18839
lfingers 7.12502
lthumb 17.3282 25.0591
rfemur -15.945 -3.98967 11.8026
rtibia 40.8567
rfoot -15.9871 -22.3439
rtoes -1.37126
lfemur -13.1285 -4.61738 -25.8064
ltibia 27.1675
lfoot -7.36924 10.2194
ltoes -8.30449
652
root 2.09866 17.8199 36.7706 2.2481 7.24236 7.94125
lowerback 0.742076 1.59262 -5.91345
upperback 0.0783454 2.06937 -1.8178
thorax -0.47746 1.0448 1.41521
lowerneck -22.8035 1.74018 7.7942
upperneck 21.9147 1.9425 -8.38946
head 11.0191 0.481474 -4.06946
rclavicle -4.38569e-015 -1.59028e-014
rhumerus -14.0669 -12.9892 -65.5534
rradius 44.958
rwrist -17.9492
rhand -21.0524 0.064884
rfingers 7.12502
rthumb 5.32371 -29.8482
lclavicle -4.38569e-015 -1.59028e-014
lhumerus -38.8772 18.5487 70.3559
lradius 12.6237
lwrist -19.8328
lhand -8.15009 -4.08331
lfingers 7.12502
lthumb 17.7644 25.1253
rfemur -16.0983 -4.18014 11.3786
rtibia 41.2392
rfoot -16.2382 -22.1951
rtoes -1.45472
lfemur -13.0649 -4.8732 -26.2306
ltibia 27.0784
lfoot -7.27791 10.4686
ltoes -8.39779
653
root 2.11461 17.8134 36.8021 2.3166 7.33373 8.35606
lowerback 0.749844 1.518 -6.58799
upperback -0.0428617 1.95681 -1.90376
thorax -0.618738 0.996027 1.70072
lowerneck -22.7042 1.80116 7.89559
upperneck 22.148 2.01593 -8.40093
head 11.0954 0.52539 -4.08604
rclavicle -5.42744e-014 4.65156e-014
rhumerus -14.0392 -12.9682 -65.6715
rradius 45.1639
rwrist -17.8823
rhand -21.1319 0.183284
rfingers 7.12502
rthumb 5.24704 -29.7318
lclavicle -5.42744e-014 4.65156e-014
lhumerus -38.984 19.0473 69.8362
lradius 12.3166
lwrist -20.8838
lhand -7.80755 -4.09007
lfingers 7.12502
lthumb 18.094 25.0883
rfemur -16.1604 -4.39881 10.8309
rtibia 41.593
rfoot -16.4364 -22.037
rtoes -1.55574
lfemur -12.9609 -5.08571 -26.7696
ltibia 27.0292
lfoot -7.15978 10.6443
ltoes -8.48664
654
root 2.12692 17.8094 36.8342 2.28053 7.43843 8.57729
lowerback 0.794209 1.402 -7.18336
upperback -0.130271 1.78755 -1.9014
thorax -0.739231 0.918855 2.03392
lowerneck -22.5688 1.90578 8.06113
upperneck 22.324 2.13791 -8.44887
head 11.1499 0.592794 -4.11733
rclavicle 3.31846e-014 -1.07344e-014
rhumerus -14.0324 -12.8362 -65.8841
rradius 45.3471
rwrist -17.7972
rhand -21.243 0.332309
rfingers 7.12502
rthumb 5.13975 -29.5854
lclavicle 3.31846e-014 -1.07344e-014
lhumerus -39.1239 19.6395 69.2961
lradius 12.1027
lwrist -21.8216
lhand -7.51412 -4.12302
lfingers 7.12502
lthumb 18.3763 25.029
rfemur -16.0759 -4.54459 10.5185
rtibia 41.8563
rfoot -16.6036 -21.9561
rtoes -1.6154
lfemur -12.7929 -5.21743 -27.0874
ltibia 27.0406
lfoot -7.10592 10.747
ltoes -8.54659
655
root 2.13685 17.8076 36.868 2.21199 7.55852 8.70787
lowerback 0.794572 1.28211 -7.72146
upperback -0.171448 1.61999 -1.87032
thorax -0.783395 0.83983 2.36718
lowerneck -22.5066 2.00007 8.18739
upperneck 22.5016 2.23683 -8.43403
head 11.2157 0.652976 -4.12282
rclavicle -2.58141e-014 1.11319e-014
rhumerus -14.0654 -12.7249 -66.143
rradius 45.5182
rwrist -17.6993
rhand -21.3955 0.477701
rfingers 7.12502
rthumb 4.99247 -29.4435
lclavicle -2.58141e-014 1.11319e-014
lhumerus -39.201 20.2475 68.7928
lradius 11.9752
lwrist -22.6649
lhand -7.26116 -4.15494
lfingers 7.12502
lthumb 18.6196 24.9739
rfemur -15.8968 -4.66074 10.3233
rtibia 42.0034
rfoot -16.7324 -21.9237
rtoes -1.64114
lfemur -12.6078 -5.30993 -27.2982
ltibia 27.0999
lfoot -7.11633 10.8187
ltoes -8.5872
656
root 2.14495 17.8081 36.9042 2.08286 7.68264 8.65597
lowerback 0.748934 1.13944 -8.12694
upperback -0.17903 1.43052 -1.77813
thorax -0.759606 0.746587 2.69213
lowerneck -22.4209 2.11085 8.3222
upperneck 22.668 2.34502 -8.37459
head 11.2736 0.724254 -4.11078
rclavicle -8.24646e-015 -7.15625e-015
rhumerus -14.1205 -12.5431 -66.4759
rradius 45.6484
rwrist -17.6242
rhand -21.6065 0.60713
rfingers 7.12502
rthumb 4.7887 -29.3188
lclavicle -8.24646e-015 -7.15625e-015
lhumerus -39.2826 20.7931 68.3611
lradius 11.9958
lwrist -23.2597
lhand -7.03558 -4.1663
lfingers 7.12502
lthumb 18.8366 24.9416
rfemur -15.591 -4.73066 10.3483
rtibia 42.0076
rfoot -16.8303 -21.9481
rtoes -1.63019
lfemur -12.3795 -5.36442 -27.3033
ltibia 27.1918
lfoot -7.18651 10.887
ltoes -8.65373
657
root 2.1526 17.8114 36.9432 1.89613 7.80932 8.39707
lowerback 0.653053 1.12517 -8.12247
upperback -0.0896793 1.42731 -1.71763
thorax -0.614152 0.737621 2.75552
lowerneck -22.6369 2.07187 8.20165
upperneck 22.9362 2.24799 -8.08109
head 11.4009 0.705013 -4.00568
rclavicle -3.27995e-014 1.03368e-014
rhumerus -14.2889 -12.7516 -66.7188
rradius 45.7836
rwrist -17.5695
rhand -21.8593 0.729741
rfingers 7.12502
rthumb 4.54466 -29.2015
lclavicle -3.27995e-014 1.03368e-014
lhumerus -38.9934 20.8694 68.3088
lradius 12.1053
lwrist -23.4865
lhand -6.85987 -4.12499
lfingers 7.12502
lthumb 19.0056 24.9665
rfemur -15.1692 -4.7657 10.6136
rtibia 41.8734
rfoot -16.9083 -22.0169
rtoes -1.59511
lfemur -12.0982 -5.38337 -27.0799
ltibia 27.2799
lfoot -7.29387 10.9444
ltoes -8.72723
